<svg width="1920" height="1080" viewBox="0 0 1920 1080" fill="none" xmlns="http://www.w3.org/2000/svg">
<g clip-path="url(#clip0_5_14659)">
<path d="M1195.74 540C1195.74 520.3 1179.54 502.06 1152 487.16V592.84C1179.54 577.94 1195.74 559.7 1195.74 540ZM724.26 540C724.26 559.7 740.46 577.94 768 592.84V487.16C740.46 502.06 724.26 520.3 724.26 540ZM1612.8 768.08V945.3C1639.9 930.81 1665.55 915.43 1689.6 899.24V683.99C1669.72 713.72 1643.86 741.9 1612.8 768.08ZM614.4 407.7V672.29C637.26 683.69 663.03 693.95 691.2 702.84V377.14C663.03 386.04 637.26 396.3 614.4 407.69V407.7ZM1228.8 1080H1305.6V1055.91C1280.49 1061.49 1254.88 1066.48 1228.8 1070.86V1080ZM614.4 407.7V283.57C587.23 292.45 561.56 302.35 537.6 313.16V460.9C556.77 441.37 582.81 423.45 614.4 407.69V407.7ZM76.8 323.13V756.87C98.35 785.94 124.09 813.73 153.6 839.98V240.01C124.09 266.27 98.35 294.05 76.8 323.12V323.13ZM384 420.07V659.92C404.16 683.33 430.05 705.26 460.8 725.28V354.71C430.05 374.73 404.16 396.66 384 420.07ZM998.4 1080H1075.2V957.03C1049.98 959.07 1024.36 960.45 998.4 961.14V1080ZM537.6 766.83C561.56 777.64 587.23 787.53 614.4 796.42V672.29C582.81 656.54 556.76 638.61 537.6 619.08V766.82V766.83ZM1689.6 1080H1766.4V839.98C1743.08 860.73 1717.4 880.53 1689.6 899.24V1079.99V1080ZM1152 487.16V357.53C1127.49 352.59 1101.81 348.57 1075.2 345.57V460.55C1105.6 467.14 1131.84 476.25 1152 487.16ZM1305.6 917.63V1055.91C1331.77 1050.09 1357.39 1043.63 1382.4 1036.56V893.77C1357.73 902.48 1332.1 910.46 1305.6 917.63ZM960 448.95C973.08 448.95 985.9 449.37 998.4 450.16V339.9C985.74 339.44 972.93 339.2 960 339.2C947.07 339.2 934.26 339.44 921.6 339.9V450.16C934.1 449.37 946.92 448.95 960 448.95ZM998.4 450.16V629.84C1025.89 628.1 1051.78 624.52 1075.2 619.45V460.55C1051.78 455.47 1025.89 451.9 998.4 450.16ZM1459.2 862.84V1012.28C1485.67 1002.98 1511.3 992.96 1536 982.27V822.56C1512.13 836.92 1486.46 850.38 1459.2 862.84ZM844.8 460.55V619.45C868.22 624.53 894.11 628.1 921.6 629.84V450.16C894.11 451.9 868.22 455.48 844.8 460.55ZM1382.4 1080H1459.2V1012.28C1434.32 1021.02 1408.7 1029.12 1382.4 1036.56V1080ZM1536 1080H1612.8V945.3C1588.35 958.37 1562.72 970.71 1536 982.27V1080ZM537.6 619.09V460.91C513.78 485.18 500.58 511.92 500.58 540C500.58 568.08 513.78 594.82 537.6 619.09ZM1075.2 0H998.4V118.86C1024.36 119.55 1049.98 120.93 1075.2 122.97V0ZM921.6 0H844.8V122.97C870.02 120.93 895.64 119.55 921.6 118.86V0ZM691.2 0H614.4V24.0898C639.51 18.5098 665.12 13.5199 691.2 9.13989V0ZM1459.2 0H1382.4V43.4399C1408.7 50.8699 1434.32 58.98 1459.2 67.72V0ZM1305.6 0H1228.8V9.13989C1254.88 13.5099 1280.49 18.4998 1305.6 24.0898V0ZM153.6 1080H230.4V899.25C202.59 880.54 176.92 860.74 153.6 839.99V1080.01V1080ZM230.4 0H153.6V240.02C176.92 219.27 202.6 199.47 230.4 180.76V0ZM537.6 0H460.8V67.72C485.68 58.98 511.3 50.8799 537.6 43.4399V0ZM76.8 323.13V0H0V1080H76.8V756.87C27.44 690.28 0.11 616.98 0.11 540C0.11 463.02 27.44 389.72 76.8 323.13ZM384 0H307.2V134.7C331.65 121.63 357.28 109.29 384 97.73V0ZM614.4 1080H691.2V1070.86C665.12 1066.49 639.51 1061.5 614.4 1055.91V1080ZM460.8 1080H537.6V1036.56C511.3 1029.13 485.68 1021.02 460.8 1012.28V1080ZM1843.2 0V323.13C1892.56 389.72 1919.89 463.02 1919.89 540C1919.89 616.98 1892.56 690.28 1843.2 756.87V1080H1920V0H1843.2ZM844.8 1080H921.6V961.14C895.64 960.45 870.02 959.07 844.8 957.03V1080ZM1766.4 240.01V839.98C1795.91 813.72 1821.65 785.94 1843.2 756.87V323.13C1821.65 294.06 1795.91 266.27 1766.4 240.02V240.01ZM307.2 1080H384V982.27C357.28 970.71 331.65 958.37 307.2 945.3V1080ZM1766.4 0H1689.6V180.76C1717.41 199.47 1743.08 219.27 1766.4 240.02V0ZM1228.8 9.13989C1208.29 5.69989 1187.48 2.65 1166.43 0H1152V131.36C1178.16 134.98 1203.78 139.32 1228.8 144.34V9.1499V9.13989ZM1736.04 540C1736.04 489.43 1719.64 440.94 1689.6 396.01V684C1719.64 639.07 1736.04 590.58 1736.04 540.01V540ZM183.96 540C183.96 590.57 200.36 639.06 230.4 683.99V396C200.36 440.93 183.96 489.42 183.96 539.99V540ZM1612.8 0H1536V97.73C1562.71 109.29 1588.35 121.63 1612.8 134.7V0ZM844.8 734.42V842.43C869.9 844.73 895.54 846.29 921.6 847.07V740.09C895.31 739.14 869.65 737.22 844.8 734.42ZM691.2 702.85V817.85C715.95 823.66 741.59 828.69 768 832.87V722.46C740.87 717 715.17 710.41 691.2 702.85ZM460.8 217.16V67.72C434.33 77.02 408.7 87.04 384 97.73V257.44C407.87 243.08 433.53 229.62 460.8 217.16ZM998.4 740.09V847.07C1024.46 846.29 1050.09 844.73 1075.2 842.43V734.42C1050.35 737.22 1024.69 739.14 998.4 740.09ZM1152 722.46V832.87C1178.41 828.68 1204.05 823.65 1228.8 817.85V702.85C1204.83 710.42 1179.13 717 1152 722.46ZM614.4 162.36V24.0801C588.23 29.9001 562.61 36.3599 537.6 43.4299V186.22C562.27 177.51 587.9 169.53 614.4 162.36ZM334.71 540C334.71 497.46 352.26 456.93 384 420.08V257.44C355.79 274.4 330.09 292.62 307.2 311.92V768.09C330.09 787.39 355.79 805.6 384 822.57V659.93C352.27 623.08 334.71 582.55 334.71 540.01V540ZM230.4 683.99V899.24C254.45 915.43 280.09 930.81 307.2 945.3V768.08C276.14 741.89 250.28 713.72 230.4 683.99ZM614.4 917.63C639.27 924.36 664.9 930.39 691.2 935.66V817.84C664.5 811.58 638.85 804.41 614.4 796.42V917.63ZM307.2 311.91V134.69C280.1 149.18 254.45 164.56 230.4 180.75V396C250.28 366.27 276.14 338.09 307.2 311.91ZM537.6 313.16V186.23C510.81 195.69 485.17 206.02 460.8 217.16V354.72C483.8 339.74 509.52 325.83 537.6 313.17V313.16ZM460.8 725.28V862.84C485.17 873.97 510.81 884.31 537.6 893.77V766.84C509.52 754.18 483.8 740.27 460.8 725.29V725.28ZM1689.6 396V180.75C1665.55 164.56 1639.91 149.18 1612.8 134.69V311.91C1643.86 338.1 1669.72 366.27 1689.6 396ZM1536 257.43V97.72C1511.3 87.03 1485.67 77.01 1459.2 67.71V217.15C1486.47 229.61 1512.13 243.07 1536 257.43ZM960 232.35C972.9 232.35 985.7 232.55 998.4 232.92V118.86C985.68 118.52 972.88 118.35 960 118.35C947.12 118.35 934.32 118.52 921.6 118.86V232.92C934.3 232.54 947.1 232.35 960 232.35ZM1382.4 186.23V43.4399C1357.39 36.3699 1331.77 29.9098 1305.6 24.0898V162.37C1332.1 169.54 1357.73 177.52 1382.4 186.23ZM1152 247.13V131.36C1126.87 127.88 1101.24 125.08 1075.2 122.97V237.57C1101.41 239.97 1127.05 243.18 1152 247.13ZM1536 257.43V420.07C1567.73 456.92 1585.29 497.45 1585.29 539.99C1585.29 582.53 1567.74 623.06 1536 659.91V822.55C1564.21 805.59 1589.91 787.37 1612.8 768.07V311.9C1589.91 292.6 1564.21 274.39 1536 257.42V257.43ZM1228.8 817.84V935.66C1255.1 930.38 1280.73 924.36 1305.6 917.63V796.42C1281.15 804.41 1255.5 811.58 1228.8 817.84ZM1382.4 766.83V893.76C1409.19 884.3 1434.83 873.97 1459.2 862.83V725.27C1436.2 740.25 1410.48 754.16 1382.4 766.82V766.83ZM768 131.36V0H753.57C732.52 2.66 711.71 5.69989 691.2 9.13989V144.33C716.22 139.31 741.84 134.97 768 131.35V131.36ZM844.8 237.56V122.96C818.76 125.07 793.13 127.87 768 131.35V247.12C792.95 243.16 818.59 239.96 844.8 237.56ZM537.6 893.77V1036.56C562.61 1043.63 588.23 1050.09 614.4 1055.91V917.63C587.9 910.46 562.27 902.48 537.6 893.77ZM1382.4 313.16C1358.44 302.35 1332.77 292.46 1305.6 283.57V407.7C1337.19 423.45 1363.24 441.38 1382.4 460.9V313.16ZM1419.42 540C1419.42 511.92 1406.22 485.18 1382.4 460.91V619.1C1406.22 594.83 1419.42 568.09 1419.42 540.01V540ZM960 847.65C947.1 847.65 934.3 847.45 921.6 847.08V961.14C934.32 961.48 947.12 961.65 960 961.65C972.88 961.65 985.68 961.48 998.4 961.14V847.08C985.7 847.46 972.9 847.65 960 847.65ZM1305.6 672.29V796.42C1332.77 787.54 1358.44 777.64 1382.4 766.83V619.09C1363.23 638.61 1337.19 656.54 1305.6 672.29ZM1228.8 377.15V702.85C1256.97 693.95 1282.74 683.69 1305.6 672.3V407.71C1282.74 396.31 1256.97 386.05 1228.8 377.16V377.15ZM1152 948.64V1080H1166.43C1187.49 1077.34 1208.29 1074.3 1228.8 1070.86V935.67C1203.78 940.69 1178.16 945.03 1152 948.65V948.64ZM1459.2 354.71V725.28C1489.95 705.26 1515.84 683.33 1536 659.92V420.07C1515.84 396.66 1489.95 374.73 1459.2 354.71ZM768 592.84V722.47C792.51 727.41 818.19 731.43 844.8 734.43V619.45C814.4 612.86 788.16 603.75 768 592.84ZM1075.2 619.45V734.43C1101.81 731.43 1127.49 727.41 1152 722.47V592.84C1131.84 603.75 1105.6 612.86 1075.2 619.45ZM960 631.05C946.92 631.05 934.1 630.63 921.6 629.84V740.1C934.26 740.56 947.07 740.8 960 740.8C972.93 740.8 985.74 740.56 998.4 740.1V629.84C985.9 630.63 973.08 631.05 960 631.05ZM1075.2 842.43V957.03C1101.24 954.92 1126.87 952.12 1152 948.64V832.87C1127.05 836.83 1101.41 840.03 1075.2 842.43ZM844.8 460.55V345.57C818.19 348.57 792.51 352.59 768 357.53V487.16C788.16 476.25 814.4 467.14 844.8 460.55ZM921.6 339.9V232.92C895.54 233.7 869.91 235.26 844.8 237.56V345.57C869.65 342.77 895.31 340.85 921.6 339.9ZM691.2 262.15V144.33C664.9 149.61 639.27 155.63 614.4 162.36V283.57C638.85 275.58 664.5 268.41 691.2 262.15ZM1075.2 345.57V237.56C1050.1 235.26 1024.46 233.7 998.4 232.92V339.9C1024.69 340.85 1050.35 342.77 1075.2 345.57ZM384 822.56V982.27C408.7 992.96 434.33 1002.98 460.8 1012.28V862.84C433.53 850.38 407.87 836.92 384 822.56ZM768 357.53V247.12C741.59 251.31 715.95 256.34 691.2 262.14V377.14C715.17 369.57 740.87 362.99 768 357.53ZM1459.2 354.71V217.15C1434.83 206.02 1409.19 195.68 1382.4 186.22V313.15C1410.48 325.81 1436.2 339.72 1459.2 354.7V354.71ZM768 832.87V948.64C793.13 952.12 818.75 954.92 844.8 957.03V842.43C818.59 840.03 792.95 836.82 768 832.87ZM1305.6 162.36C1280.73 155.63 1255.1 149.6 1228.8 144.33V262.15C1255.5 268.41 1281.15 275.58 1305.6 283.57V162.36ZM691.2 1070.85C711.71 1074.29 732.52 1077.34 753.57 1079.99H768V948.63C741.84 945.01 716.22 940.67 691.2 935.65V1070.84V1070.85ZM1228.8 377.15V262.15C1204.05 256.34 1178.41 251.31 1152 247.13V357.54C1179.13 363 1204.83 369.59 1228.8 377.15Z" fill="#F0F0EB" style="fill:#F0F0EB;fill:color(display-p3 0.9412 0.9412 0.9216);fill-opacity:1;"/>
</g>
<defs>
<clipPath id="clip0_5_14659">
<rect width="1920" height="1080" fill="white" style="fill:white;fill-opacity:1;"/>
</clipPath>
</defs>
</svg>
