<svg width="1921" height="1081" viewBox="0 0 1921 1081" fill="none" xmlns="http://www.w3.org/2000/svg">
<path d="M1788.6 649.5H1920V629.74C1871.21 629.59 1831.57 589.85 1831.57 541.03C1831.57 492.21 1871.22 452.47 1920 452.32V434.24H1787.24C1763.71 463.5 1749.6 500.64 1749.6 541.03C1749.6 581.42 1764.24 619.99 1788.59 649.5H1788.6Z" fill="#F0F0EB" style="fill:#F0F0EB;fill:color(display-p3 0.9412 0.9412 0.9216);fill-opacity:1;"/>
<path d="M853.06 180.8C825.88 116.53 791.84 56.0903 751.34 0.0102539H647.52C701.2 64.0703 744.8 135.34 777.51 212.68C778.4 214.78 779.26 216.89 780.13 218.99H868.21C863.45 206.17 858.41 193.44 853.06 180.79V180.8Z" fill="#F0F0EB" style="fill:#F0F0EB;fill:color(display-p3 0.9412 0.9412 0.9216);fill-opacity:1;"/>
<path d="M777.51 869.39C745.14 945.91 702.13 1016.48 649.23 1080.01H752.82C792.67 1024.5 826.21 964.751 853.06 901.271C858.17 889.181 863 877 867.58 864.75H779.43C778.79 866.29 778.16 867.84 777.5 869.38L777.51 869.39Z" fill="#F0F0EB" style="fill:#F0F0EB;fill:color(display-p3 0.9412 0.9412 0.9216);fill-opacity:1;"/>
<path d="M1067.49 901.271C1094.34 964.751 1127.88 1024.5 1167.73 1080.01H1271.32C1218.42 1016.48 1175.41 945.91 1143.04 869.39C1142.39 867.85 1141.76 866.3 1141.11 864.76H1052.96C1057.54 877.01 1062.37 889.18 1067.48 901.28L1067.49 901.271Z" fill="#F0F0EB" style="fill:#F0F0EB;fill:color(display-p3 0.9412 0.9412 0.9216);fill-opacity:1;"/>
<path d="M837.15 434.25C841.58 469.44 843.81 505.07 843.81 541.04C843.81 577.01 841.5 613.77 836.93 649.51H919.52C923.68 613.73 925.78 577.55 925.78 541.04C925.78 504.53 923.75 469.49 919.72 434.25H837.15Z" fill="#F0F0EB" style="fill:#F0F0EB;fill:color(display-p3 0.9412 0.9412 0.9216);fill-opacity:1;"/>
<path d="M0.280029 521.32V560.74C11.15 560.74 19.99 551.9 19.99 541.03C19.99 530.16 11.15 521.32 0.280029 521.32Z" fill="#F0F0EB" style="fill:#F0F0EB;fill:color(display-p3 0.9412 0.9412 0.9216);fill-opacity:1;"/>
<path d="M133.32 434.25H0.14V452.32C49.06 452.32 88.99 492.12 88.99 541.03C88.99 589.94 49.19 629.74 0.28 629.74L0 649.5H131.96C156.31 619.99 170.95 582.19 170.95 541.03C170.95 499.87 156.84 463.5 133.31 434.24L133.32 434.25Z" fill="#F0F0EB" style="fill:#F0F0EB;fill:color(display-p3 0.9412 0.9412 0.9216);fill-opacity:1;"/>
<path d="M916.61 928.15C894.13 981.29 867.29 1032 836.29 1080.01H921.45C924.32 1074.72 927.17 1069.41 929.94 1064.08L960.5 1005.39L991.12 1064.05C993.91 1069.39 996.77 1074.71 999.65 1080.02H1084.25C1053.25 1032.01 1026.41 981.3 1003.93 928.16C995.08 907.24 986.99 886.111 979.64 864.771H940.89C933.54 886.111 925.44 907.25 916.6 928.16L916.61 928.15Z" fill="#F0F0EB" style="fill:#F0F0EB;fill:color(display-p3 0.9412 0.9412 0.9216);fill-opacity:1;"/>
<path d="M334.46 206.85C291.05 163.43 240.5 129.35 184.23 105.55C125.99 80.9198 64.1 68.4302 0.280029 68.4302V150.39C53 150.39 104.16 160.72 152.35 181.1C176.76 191.42 199.85 204.11 221.47 218.99H346.19C342.36 214.88 338.45 210.83 334.47 206.85H334.46Z" fill="#F0F0EB" style="fill:#F0F0EB;fill:color(display-p3 0.9412 0.9412 0.9216);fill-opacity:1;"/>
<path d="M1768.21 181.11C1816.31 160.77 1867.38 150.44 1920 150.4V68.4399C1856.28 68.4799 1794.49 80.9701 1736.33 105.56C1680.06 129.36 1629.51 163.44 1586.1 206.86C1582.11 210.85 1578.21 214.9 1574.38 219H1699.1C1720.73 204.12 1743.81 191.43 1768.22 181.11H1768.21Z" fill="#F0F0EB" style="fill:#F0F0EB;fill:color(display-p3 0.9412 0.9412 0.9216);fill-opacity:1;"/>
<path d="M1447.67 541.03C1447.67 577.94 1451.86 614.21 1460.15 649.5H1544.89C1534.76 614.45 1529.64 578.13 1529.64 541.03C1529.64 503.93 1534.6 468.78 1544.41 434.24H1459.76C1451.73 469 1447.68 504.7 1447.68 541.03H1447.67Z" fill="#F0F0EB" style="fill:#F0F0EB;fill:color(display-p3 0.9412 0.9412 0.9216);fill-opacity:1;"/>
<path d="M1000.85 434.25C996.82 469.48 994.79 505.1 994.79 541.04C994.79 576.98 996.89 613.73 1001.05 649.51H1083.64C1079.07 613.77 1076.76 577.58 1076.76 541.04C1076.76 504.5 1078.99 469.45 1083.42 434.25H1000.85Z" fill="#F0F0EB" style="fill:#F0F0EB;fill:color(display-p3 0.9412 0.9412 0.9216);fill-opacity:1;"/>
<path d="M1389.17 434.25H1305.78C1299.75 469.26 1296.71 504.91 1296.71 541.04C1296.71 577.17 1299.84 613.96 1306.07 649.51H1389.51C1382.3 614.07 1378.67 577.83 1378.67 541.04C1378.67 504.25 1382.19 469.16 1389.17 434.25Z" fill="#F0F0EB" style="fill:#F0F0EB;fill:color(display-p3 0.9412 0.9412 0.9216);fill-opacity:1;"/>
<path d="M383.25 924.01C333.52 973.74 275.6 1012.79 211.1 1040.07C160.85 1061.33 108.25 1074.69 54.1599 1080.01H314.16C360.35 1053.09 402.89 1020.29 441.2 981.97C476.79 946.39 507.61 907.17 533.4 864.76H434.58C419.01 885.6 401.88 905.38 383.25 924.01Z" fill="#F0F0EB" style="fill:#F0F0EB;fill:color(display-p3 0.9412 0.9412 0.9216);fill-opacity:1;"/>
<path d="M1235.87 434.25H1153.01C1148.18 469.4 1145.75 505.03 1145.75 541.04C1145.75 577.05 1148.26 613.82 1153.25 649.51H1236.14C1230.54 613.88 1227.72 577.68 1227.72 541.04C1227.72 504.4 1230.46 469.34 1235.88 434.25H1235.87Z" fill="#F0F0EB" style="fill:#F0F0EB;fill:color(display-p3 0.9412 0.9412 0.9216);fill-opacity:1;"/>
<path d="M1617.3 649.5H1706.43C1689.55 616.3 1680.61 579.36 1680.61 541.03C1680.61 502.7 1689.25 467.01 1705.59 434.24H1616.73C1604.85 468.1 1598.65 504.08 1598.65 541.03C1598.65 577.98 1605.04 615.15 1617.31 649.5H1617.3Z" fill="#F0F0EB" style="fill:#F0F0EB;fill:color(display-p3 0.9412 0.9412 0.9216);fill-opacity:1;"/>
<path d="M490 1030.76C472.54 1048.22 454.29 1064.64 435.29 1080.01H556.51C617.91 1016.69 667.47 944.42 704.12 864.76H612.7C580.45 925.76 539.34 981.41 489.99 1030.76H490Z" fill="#F0F0EB" style="fill:#F0F0EB;fill:color(display-p3 0.9412 0.9412 0.9216);fill-opacity:1;"/>
<path d="M460.8 434.25H376.15C385.96 468.78 390.92 504.54 390.92 541.04C390.92 577.54 385.8 614.45 375.67 649.51H460.41C468.7 614.22 472.89 577.95 472.89 541.04C472.89 504.13 468.84 469.01 460.81 434.25H460.8Z" fill="#F0F0EB" style="fill:#F0F0EB;fill:color(display-p3 0.9412 0.9412 0.9216);fill-opacity:1;"/>
<path d="M214.98 434.25C231.31 467.01 239.96 503.36 239.96 541.04C239.96 578.72 231.02 616.31 214.14 649.51H303.27C315.54 615.17 321.93 578.6 321.93 541.04C321.93 503.48 315.73 468.11 303.85 434.25H214.98Z" fill="#F0F0EB" style="fill:#F0F0EB;fill:color(display-p3 0.9412 0.9412 0.9216);fill-opacity:1;"/>
<path d="M614.77 434.25H531.38C538.36 469.15 541.88 504.83 541.88 541.04C541.88 577.25 538.25 614.07 531.04 649.51H614.48C620.71 613.96 623.84 577.74 623.84 541.04C623.84 504.34 620.8 469.26 614.77 434.25Z" fill="#F0F0EB" style="fill:#F0F0EB;fill:color(display-p3 0.9412 0.9412 0.9216);fill-opacity:1;"/>
<path d="M554.53 0.0102539H432.74C452.65 15.9703 471.76 33.0798 490 51.3198C539.8 101.12 581.22 157.35 613.6 219H704.9C667.77 137.81 617.29 64.2603 554.53 0.0102539Z" fill="#F0F0EB" style="fill:#F0F0EB;fill:color(display-p3 0.9412 0.9412 0.9216);fill-opacity:1;"/>
<path d="M1586.1 875.22C1629.51 918.63 1680.06 952.721 1736.33 976.521C1794.49 1001.12 1856.28 1013.61 1920 1013.64V931.68C1867.38 931.64 1816.31 921.31 1768.21 900.97C1744.72 891.03 1722.44 878.93 1701.52 864.76H1575.96C1579.28 868.29 1582.66 871.78 1586.1 875.22Z" fill="#F0F0EB" style="fill:#F0F0EB;fill:color(display-p3 0.9412 0.9412 0.9216);fill-opacity:1;"/>
<path d="M1143.05 212.68C1175.77 135.33 1219.36 64.0603 1273.04 0.0102539H1169.22C1128.72 56.1003 1094.68 116.54 1067.5 180.8C1062.15 193.44 1057.11 206.18 1052.35 219H1140.43C1141.3 216.89 1142.17 214.79 1143.05 212.69V212.68Z" fill="#F0F0EB" style="fill:#F0F0EB;fill:color(display-p3 0.9412 0.9412 0.9216);fill-opacity:1;"/>
<path d="M1430.56 51.3101C1448.8 33.0701 1467.9 15.96 1487.82 0H1366.03C1303.27 64.25 1252.79 137.8 1215.66 218.99H1306.96C1339.34 157.33 1380.76 101.11 1430.56 51.3101Z" fill="#F0F0EB" style="fill:#F0F0EB;fill:color(display-p3 0.9412 0.9412 0.9216);fill-opacity:1;"/>
<path d="M441.21 100.11C401.91 60.8099 358.19 27.3203 310.63 0.0102539H25.4199C89.6499 2.92025 152 17.0103 211.11 42.0103C275.61 69.2903 333.53 108.34 383.25 158.07C402.38 177.2 419.92 197.54 435.83 219H534.42C508.43 175.95 477.26 136.16 441.21 100.11Z" fill="#F0F0EB" style="fill:#F0F0EB;fill:color(display-p3 0.9412 0.9412 0.9216);fill-opacity:1;"/>
<path d="M1479.21 100.11C1518.51 60.8094 1562.23 27.3198 1609.79 0.00976562H1895C1830.77 2.91976 1768.42 17.0098 1709.31 42.0098C1644.81 69.2898 1586.89 108.34 1537.17 158.07C1518.04 177.2 1500.5 197.54 1484.59 219H1386C1411.99 175.95 1443.16 136.16 1479.21 100.11Z" fill="#F0F0EB" style="fill:#F0F0EB;fill:color(display-p3 0.9412 0.9412 0.9216);fill-opacity:1;"/>
<path d="M1003.95 153.92C1026.75 100.02 1054.04 48.6303 1085.6 0.0102539H999.11C996.23 5.30025 993.39 10.6099 990.62 15.9399L960.06 74.6299L929.44 15.9702C926.65 10.6302 923.79 5.31 920.91 0H834.97C866.53 48.62 893.82 100.01 916.62 153.91C925.7 175.37 933.98 197.07 941.49 218.99H979.09C986.59 197.08 994.88 175.38 1003.96 153.91L1003.95 153.92Z" fill="#F0F0EB" style="fill:#F0F0EB;fill:color(display-p3 0.9412 0.9412 0.9216);fill-opacity:1;"/>
<path d="M1479.35 981.97C1517.67 1020.29 1560.2 1053.09 1606.39 1080.01H1866.39C1812.29 1074.69 1759.7 1061.32 1709.45 1040.07C1644.95 1012.79 1587.03 973.74 1537.3 924.01C1518.67 905.38 1501.54 885.6 1485.97 864.76H1387.15C1412.93 907.17 1443.76 946.39 1479.35 981.97Z" fill="#F0F0EB" style="fill:#F0F0EB;fill:color(display-p3 0.9412 0.9412 0.9216);fill-opacity:1;"/>
<path d="M1485.26 1080.01C1466.27 1064.64 1448.01 1048.22 1430.55 1030.76C1381.2 981.41 1340.09 925.75 1307.84 864.76H1216.42C1253.08 944.42 1302.63 1016.69 1364.03 1080.01H1485.26Z" fill="#F0F0EB" style="fill:#F0F0EB;fill:color(display-p3 0.9412 0.9412 0.9216);fill-opacity:1;"/>
<path d="M767.55 434.25H684.69C690.11 469.34 692.85 504.98 692.85 541.04C692.85 577.1 690.02 613.88 684.43 649.51H767.32C772.31 613.82 774.82 577.62 774.82 541.04C774.82 504.46 772.39 469.4 767.56 434.25H767.55Z" fill="#F0F0EB" style="fill:#F0F0EB;fill:color(display-p3 0.9412 0.9412 0.9216);fill-opacity:1;"/>
<path d="M1920 521.34C1909.26 521.49 1900.57 530.26 1900.57 541.04C1900.57 551.82 1909.26 560.59 1920 560.74V521.34Z" fill="#F0F0EB" style="fill:#F0F0EB;fill:color(display-p3 0.9412 0.9412 0.9216);fill-opacity:1;"/>
<path d="M152.34 900.96C104.16 921.34 53 931.67 0.27002 931.67V1013.63C64.09 1013.63 125.98 1001.14 184.22 976.51C240.49 952.71 291.04 918.63 334.45 875.21C337.89 871.77 341.27 868.28 344.59 864.75H219.03C198.11 878.91 175.83 891.02 152.34 900.96Z" fill="#F0F0EB" style="fill:#F0F0EB;fill:color(display-p3 0.9412 0.9412 0.9216);fill-opacity:1;"/>
<path d="M1389.17 434.25H1459.75C1465.83 407.94 1474.18 382.18 1484.79 357.09C1506.41 305.99 1536.5 259.61 1574.36 219H1484.72C1459.28 253.33 1438.03 290.52 1421.24 330.21C1406.98 363.92 1396.28 398.69 1389.16 434.25H1389.17Z" fill="#F0F0EB" style="fill:#F0F0EB;fill:color(display-p3 0.9412 0.9412 0.9216);fill-opacity:1;"/>
<path d="M0.280029 711.71V780.71C64.3 780.71 124.49 755.78 169.76 710.51C187.93 692.34 202.82 671.76 214.14 649.5H131.97C100.64 687.47 53.24 711.71 0.290029 711.71H0.280029Z" fill="#F0F0EB" style="fill:#F0F0EB;fill:color(display-p3 0.9412 0.9412 0.9216);fill-opacity:1;"/>
<path d="M169.76 371.56C124.49 326.29 64.3 301.36 0.280029 301.36V370.36C54.01 370.36 102.01 395.32 133.32 434.25H214.98C203.56 411.34 188.39 390.19 169.76 371.56Z" fill="#F0F0EB" style="fill:#F0F0EB;fill:color(display-p3 0.9412 0.9412 0.9216);fill-opacity:1;"/>
<path d="M684.43 649.5H614.49C606.43 695.51 593.2 740.39 574.86 783.74C562.97 811.86 549.12 838.9 533.4 864.75H612.71C622.02 847.14 630.59 829.09 638.41 810.62C660.38 758.68 675.75 704.79 684.43 649.5Z" fill="#F0F0EB" style="fill:#F0F0EB;fill:color(display-p3 0.9412 0.9412 0.9216);fill-opacity:1;"/>
<path d="M1560.35 693.1C1580.03 739.62 1608.19 781.39 1644.05 817.26C1661.8 835.01 1681.01 850.87 1701.52 864.76H1920L1920.28 862.68C1834.37 862.68 1753.6 829.22 1692.85 768.47C1658.65 734.27 1633.11 693.73 1617.31 649.5H1544.9C1549.17 664.27 1554.32 678.82 1560.36 693.1H1560.35Z" fill="#F0F0EB" style="fill:#F0F0EB;fill:color(display-p3 0.9412 0.9412 0.9216);fill-opacity:1;"/>
<path d="M1750.8 710.51C1796.07 755.78 1856.26 780.71 1920.28 780.71V711.71C1867.33 711.71 1819.93 687.47 1788.6 649.5H1706.43C1717.75 671.76 1732.64 692.34 1750.81 710.51H1750.8Z" fill="#F0F0EB" style="fill:#F0F0EB;fill:color(display-p3 0.9412 0.9412 0.9216);fill-opacity:1;"/>
<path d="M531.05 649.5H460.41C454.37 675.22 446.15 700.43 435.76 724.98C413.84 776.79 383.21 823.74 344.6 864.75H434.58C460.58 829.96 482.24 792.19 499.3 751.86C513.33 718.68 523.93 684.48 531.04 649.5H531.05Z" fill="#F0F0EB" style="fill:#F0F0EB;fill:color(display-p3 0.9412 0.9412 0.9216);fill-opacity:1;"/>
<path d="M767.31 649.5C758.04 715.84 740.21 780.43 713.96 842.51C710.8 849.99 707.51 857.4 704.13 864.76H779.44C808.24 795.54 827.46 723.49 836.93 649.51H767.31V649.5Z" fill="#F0F0EB" style="fill:#F0F0EB;fill:color(display-p3 0.9412 0.9412 0.9216);fill-opacity:1;"/>
<path d="M360.21 693.1C366.25 678.82 371.4 664.27 375.67 649.5H303.26C287.46 693.73 261.91 734.27 227.72 768.47C166.97 829.22 86.2 862.68 0.290039 862.68V864.76H219.05C239.56 850.88 258.76 835.02 276.52 817.26C312.39 781.4 340.55 739.62 360.22 693.1H360.21Z" fill="#F0F0EB" style="fill:#F0F0EB;fill:color(display-p3 0.9412 0.9412 0.9216);fill-opacity:1;"/>
<path d="M1460.15 649.5H1389.51C1396.62 684.48 1407.22 718.68 1421.25 751.86C1438.31 792.2 1459.97 829.96 1485.97 864.75H1575.95C1537.35 823.74 1506.71 776.79 1484.79 724.98C1474.4 700.43 1466.19 675.22 1460.14 649.5H1460.15Z" fill="#F0F0EB" style="fill:#F0F0EB;fill:color(display-p3 0.9412 0.9412 0.9216);fill-opacity:1;"/>
<path d="M1153.24 649.5H1083.62C1093.09 723.48 1112.32 795.53 1141.11 864.75H1216.42C1213.04 857.4 1209.75 849.98 1206.59 842.5C1180.34 780.43 1162.51 715.83 1153.24 649.49V649.5Z" fill="#F0F0EB" style="fill:#F0F0EB;fill:color(display-p3 0.9412 0.9412 0.9216);fill-opacity:1;"/>
<path d="M919.52 649.5C910.95 723.21 893.59 795.21 867.59 864.75H940.91C948.08 843.95 954.54 822.95 960.28 801.78C966.03 822.95 972.49 843.95 979.65 864.75H1052.97C1026.97 795.2 1009.61 723.21 1001.04 649.5H919.51H919.52Z" fill="#F0F0EB" style="fill:#F0F0EB;fill:color(display-p3 0.9412 0.9412 0.9216);fill-opacity:1;"/>
<path d="M1153 434.25C1162.2 367.32 1180.12 302.16 1206.59 239.56C1209.51 232.65 1212.54 225.8 1215.65 219H1140.41C1111.78 288.23 1092.71 360.28 1083.39 434.25H1153Z" fill="#F0F0EB" style="fill:#F0F0EB;fill:color(display-p3 0.9412 0.9412 0.9216);fill-opacity:1;"/>
<path d="M1920.28 219.4L1920 219H1699.09C1679.5 232.48 1661.1 247.77 1644.05 264.81C1608.19 300.68 1580.02 342.45 1560.35 388.97C1554.08 403.79 1548.76 418.9 1544.4 434.25H1616.72C1632.47 389.37 1658.21 348.23 1692.84 313.6C1753.59 252.85 1834.36 219.39 1920.27 219.39L1920.28 219.4Z" fill="#F0F0EB" style="fill:#F0F0EB;fill:color(display-p3 0.9412 0.9412 0.9216);fill-opacity:1;"/>
<path d="M1306.07 649.5H1236.13C1244.81 704.79 1260.18 758.69 1282.15 810.62C1289.96 829.09 1298.54 847.14 1307.85 864.75H1387.16C1371.44 838.9 1357.6 811.86 1345.7 783.74C1327.36 740.39 1314.13 695.5 1306.07 649.5Z" fill="#F0F0EB" style="fill:#F0F0EB;fill:color(display-p3 0.9412 0.9412 0.9216);fill-opacity:1;"/>
<path d="M1000.84 434.25C1009.27 360.54 1026.49 288.55 1052.34 219H979.07C972.13 239.25 965.86 259.69 960.27 280.29C954.68 259.69 948.41 239.25 941.47 219H868.2C894.05 288.55 911.27 360.55 919.7 434.25H1000.84Z" fill="#F0F0EB" style="fill:#F0F0EB;fill:color(display-p3 0.9412 0.9412 0.9216);fill-opacity:1;"/>
<path d="M1235.87 434.25H1305.79C1313.82 387.66 1327.14 342.21 1345.7 298.32C1357.34 270.81 1370.84 244.34 1386.14 218.99H1306.96C1297.99 236.06 1289.72 253.55 1282.15 271.44C1259.96 323.9 1244.5 378.37 1235.87 434.24V434.25Z" fill="#F0F0EB" style="fill:#F0F0EB;fill:color(display-p3 0.9412 0.9412 0.9216);fill-opacity:1;"/>
<path d="M1920.28 370.36V301.36C1856.26 301.36 1796.07 326.29 1750.8 371.56C1732.17 390.19 1717 411.34 1705.58 434.25H1787.24C1818.55 395.32 1866.55 370.36 1920.28 370.36Z" fill="#F0F0EB" style="fill:#F0F0EB;fill:color(display-p3 0.9412 0.9412 0.9216);fill-opacity:1;"/>
<path d="M460.8 434.25H531.38C524.27 398.68 513.56 363.92 499.3 330.21C482.51 290.52 461.26 253.33 435.82 219H346.18C384.04 259.61 414.14 305.99 435.75 357.09C446.36 382.18 454.71 407.95 460.79 434.25H460.8Z" fill="#F0F0EB" style="fill:#F0F0EB;fill:color(display-p3 0.9412 0.9412 0.9216);fill-opacity:1;"/>
<path d="M614.77 434.25H684.69C676.06 378.37 660.6 323.91 638.41 271.45C630.84 253.56 622.57 236.08 613.6 219H534.42C549.72 244.34 563.22 270.81 574.86 298.33C593.42 342.21 606.75 387.66 614.77 434.26V434.25Z" fill="#F0F0EB" style="fill:#F0F0EB;fill:color(display-p3 0.9412 0.9412 0.9216);fill-opacity:1;"/>
<path d="M360.21 388.97C340.53 342.45 312.37 300.68 276.51 264.81C259.46 247.76 241.07 232.48 221.47 219H0.280029V219.4C86.19 219.4 166.96 252.86 227.71 313.61C262.34 348.24 288.08 389.38 303.83 434.26H376.15C371.79 418.91 366.47 403.8 360.2 388.98L360.21 388.97Z" fill="#F0F0EB" style="fill:#F0F0EB;fill:color(display-p3 0.9412 0.9412 0.9216);fill-opacity:1;"/>
<path d="M767.55 434.25H837.15C827.83 360.28 808.76 288.23 780.13 219H704.89C708 225.8 711.03 232.65 713.95 239.56C740.43 302.16 758.34 367.32 767.54 434.25H767.55Z" fill="#F0F0EB" style="fill:#F0F0EB;fill:color(display-p3 0.9412 0.9412 0.9216);fill-opacity:1;"/>
</svg>
