<svg width="1605" height="903" viewBox="0 0 1605 903" fill="none" xmlns="http://www.w3.org/2000/svg">
<g clip-path="url(#clip0_7_145)">
<path d="M695.918 564.258C727.082 564.258 752.344 538.996 752.344 507.832C752.344 476.668 727.082 451.406 695.918 451.406C664.754 451.406 639.492 476.668 639.492 507.832C639.492 538.996 664.754 564.258 695.918 564.258ZM802.5 677.109C833.664 677.109 858.926 651.847 858.926 620.684C858.926 589.52 833.664 564.258 802.5 564.258C771.336 564.258 746.074 589.52 746.074 620.684C746.074 651.847 771.336 677.109 802.5 677.109ZM589.336 677.109C620.5 677.109 645.762 651.847 645.762 620.684C645.762 589.52 620.5 564.258 589.336 564.258C558.172 564.258 532.91 589.52 532.91 620.684C532.91 651.847 558.172 677.109 589.336 677.109ZM482.754 564.258C513.918 564.258 539.18 538.996 539.18 507.832C539.18 476.668 513.918 451.406 482.754 451.406C451.59 451.406 426.328 476.668 426.328 507.832C426.328 538.996 451.59 564.258 482.754 564.258ZM269.59 564.258C300.754 564.258 326.016 538.996 326.016 507.832C326.016 476.668 300.754 451.406 269.59 451.406C238.426 451.406 213.164 476.668 213.164 507.832C213.164 538.996 238.426 564.258 269.59 564.258ZM376.172 677.109C407.336 677.109 432.598 651.847 432.598 620.684C432.598 589.52 407.336 564.258 376.172 564.258C345.008 564.258 319.746 589.52 319.746 620.684C319.746 651.847 345.008 677.109 376.172 677.109ZM1335.41 112.852C1366.57 112.852 1391.84 87.5895 1391.84 56.4258C1391.84 25.262 1366.57 0 1335.41 0C1304.25 0 1278.98 25.262 1278.98 56.4258C1278.98 87.5895 1304.25 112.852 1335.41 112.852ZM1441.99 677.109C1473.16 677.109 1498.42 651.847 1498.42 620.684C1498.42 589.52 1473.16 564.258 1441.99 564.258C1410.83 564.258 1385.57 589.52 1385.57 620.684C1385.57 651.847 1410.83 677.109 1441.99 677.109ZM1441.99 338.555C1410.83 338.555 1385.57 363.817 1385.57 394.98C1385.57 426.144 1410.83 451.406 1441.99 451.406C1473.16 451.406 1498.42 426.144 1498.42 394.98C1498.42 363.817 1473.16 338.555 1441.99 338.555ZM1015.66 677.109C1046.83 677.109 1072.09 651.847 1072.09 620.684C1072.09 589.52 1046.83 564.258 1015.66 564.258C984.5 564.258 959.238 589.52 959.238 620.684C959.238 651.847 984.5 677.109 1015.66 677.109ZM163.008 677.109C194.172 677.109 219.434 651.847 219.434 620.684C219.434 589.52 194.172 564.258 163.008 564.258C131.844 564.258 106.582 589.52 106.582 620.684C106.582 651.847 131.844 677.109 163.008 677.109ZM1122.25 564.258C1153.41 564.258 1178.67 538.996 1178.67 507.832C1178.67 476.668 1153.41 451.406 1122.25 451.406C1091.08 451.406 1065.82 476.668 1065.82 507.832C1065.82 538.996 1091.08 564.258 1122.25 564.258ZM1228.83 677.109C1259.99 677.109 1285.25 651.847 1285.25 620.684C1285.25 589.52 1259.99 564.258 1228.83 564.258C1197.66 564.258 1172.4 589.52 1172.4 620.684C1172.4 651.847 1197.66 677.109 1228.83 677.109ZM1228.83 225.703C1259.99 225.703 1285.25 200.441 1285.25 169.277C1285.25 138.114 1259.99 112.852 1228.83 112.852C1197.66 112.852 1172.4 138.114 1172.4 169.277C1172.4 200.441 1197.66 225.703 1228.83 225.703ZM1335.41 564.258C1366.57 564.258 1391.84 538.996 1391.84 507.832C1391.84 476.668 1366.57 451.406 1335.41 451.406C1304.25 451.406 1278.98 476.668 1278.98 507.832C1278.98 538.996 1304.25 564.258 1335.41 564.258ZM1335.41 338.555C1366.57 338.555 1391.84 313.293 1391.84 282.129C1391.84 250.965 1366.57 225.703 1335.41 225.703C1304.25 225.703 1278.98 250.965 1278.98 282.129C1278.98 313.293 1304.25 338.555 1335.41 338.555ZM1122.25 225.703C1091.08 225.703 1065.82 250.965 1065.82 282.129C1065.82 313.293 1091.08 338.555 1122.25 338.555C1153.41 338.555 1178.67 313.293 1178.67 282.129C1178.67 250.965 1153.41 225.703 1122.25 225.703ZM909.082 225.703C877.918 225.703 852.656 250.965 852.656 282.129C852.656 313.293 877.918 338.555 909.082 338.555C940.246 338.555 965.508 313.293 965.508 282.129C965.508 250.965 940.246 225.703 909.082 225.703ZM1015.66 338.555C984.5 338.555 959.238 363.817 959.238 394.98C959.238 426.144 984.5 451.406 1015.66 451.406C1046.83 451.406 1072.09 426.144 1072.09 394.98C1072.09 363.817 1046.83 338.555 1015.66 338.555ZM1548.57 112.852C1579.74 112.852 1605 87.5895 1605 56.4258C1605 25.262 1579.74 0 1548.57 0C1517.41 0 1492.15 25.262 1492.15 56.4258C1492.15 87.5895 1517.41 112.852 1548.57 112.852ZM1228.83 338.555C1197.66 338.555 1172.4 363.817 1172.4 394.98C1172.4 426.144 1197.66 451.406 1228.83 451.406C1259.99 451.406 1285.25 426.144 1285.25 394.98C1285.25 363.817 1259.99 338.555 1228.83 338.555ZM1441.99 225.703C1473.16 225.703 1498.42 200.441 1498.42 169.277C1498.42 138.114 1473.16 112.852 1441.99 112.852C1410.83 112.852 1385.57 138.114 1385.57 169.277C1385.57 200.441 1410.83 225.703 1441.99 225.703ZM589.336 338.555C558.172 338.555 532.91 363.817 532.91 394.98C532.91 426.144 558.172 451.406 589.336 451.406C620.5 451.406 645.762 426.144 645.762 394.98C645.762 363.817 620.5 338.555 589.336 338.555ZM802.5 338.555C771.336 338.555 746.074 363.817 746.074 394.98C746.074 426.144 771.336 451.406 802.5 451.406C833.664 451.406 858.926 426.144 858.926 394.98C858.926 363.817 833.664 338.555 802.5 338.555ZM269.59 225.703C238.426 225.703 213.164 250.965 213.164 282.129C213.164 313.293 238.426 338.555 269.59 338.555C300.754 338.555 326.016 313.293 326.016 282.129C326.016 250.965 300.754 225.703 269.59 225.703ZM482.754 225.703C451.59 225.703 426.328 250.965 426.328 282.129C426.328 313.293 451.59 338.555 482.754 338.555C513.918 338.555 539.18 313.293 539.18 282.129C539.18 250.965 513.918 225.703 482.754 225.703ZM376.172 338.555C345.008 338.555 319.746 363.817 319.746 394.98C319.746 426.144 345.008 451.406 376.172 451.406C407.336 451.406 432.598 426.144 432.598 394.98C432.598 363.817 407.336 338.555 376.172 338.555ZM163.008 338.555C131.844 338.555 106.582 363.817 106.582 394.98C106.582 426.144 131.844 451.406 163.008 451.406C194.172 451.406 219.434 426.144 219.434 394.98C219.434 363.817 194.172 338.555 163.008 338.555ZM695.918 225.703C664.754 225.703 639.492 250.965 639.492 282.129C639.492 313.293 664.754 338.555 695.918 338.555C727.082 338.555 752.344 313.293 752.344 282.129C752.344 250.965 727.082 225.703 695.918 225.703ZM909.082 564.258C940.246 564.258 965.508 538.996 965.508 507.832C965.508 476.668 940.246 451.406 909.082 451.406C877.918 451.406 852.656 476.668 852.656 507.832C852.656 538.996 877.918 564.258 909.082 564.258ZM695.918 677.109C664.754 677.109 639.492 702.371 639.492 733.535C639.492 764.699 664.754 789.961 695.918 789.961C727.082 789.961 752.344 764.699 752.344 733.535C752.344 702.371 727.082 677.109 695.918 677.109ZM802.5 789.961C771.336 789.961 746.074 815.223 746.074 846.387C746.074 877.55 771.336 902.812 802.5 902.812C833.664 902.812 858.926 877.55 858.926 846.387C858.926 815.223 833.664 789.961 802.5 789.961ZM269.59 677.109C238.426 677.109 213.164 702.371 213.164 733.535C213.164 764.699 238.426 789.961 269.59 789.961C300.754 789.961 326.016 764.699 326.016 733.535C326.016 702.371 300.754 677.109 269.59 677.109ZM482.754 677.109C451.59 677.109 426.328 702.371 426.328 733.535C426.328 764.699 451.59 789.961 482.754 789.961C513.918 789.961 539.18 764.699 539.18 733.535C539.18 702.371 513.918 677.109 482.754 677.109ZM1122.25 112.852C1153.41 112.852 1178.67 87.5895 1178.67 56.4258C1178.67 25.262 1153.41 0 1122.25 0C1091.08 0 1065.82 25.262 1065.82 56.4258C1065.82 87.5895 1091.08 112.852 1122.25 112.852ZM1015.66 789.961C984.5 789.961 959.238 815.223 959.238 846.387C959.238 877.55 984.5 902.812 1015.66 902.812C1046.83 902.812 1072.09 877.55 1072.09 846.387C1072.09 815.223 1046.83 789.961 1015.66 789.961ZM589.336 789.961C558.172 789.961 532.91 815.223 532.91 846.387C532.91 877.55 558.172 902.812 589.336 902.812C620.5 902.812 645.762 877.55 645.762 846.387C645.762 815.223 620.5 789.961 589.336 789.961ZM909.082 677.109C877.918 677.109 852.656 702.371 852.656 733.535C852.656 764.699 877.918 789.961 909.082 789.961C940.246 789.961 965.508 764.699 965.508 733.535C965.508 702.371 940.246 677.109 909.082 677.109ZM1122.25 677.109C1091.08 677.109 1065.82 702.371 1065.82 733.535C1065.82 764.699 1091.08 789.961 1122.25 789.961C1153.41 789.961 1178.67 764.699 1178.67 733.535C1178.67 702.371 1153.41 677.109 1122.25 677.109ZM1548.57 225.703C1517.41 225.703 1492.15 250.965 1492.15 282.129C1492.15 313.293 1517.41 338.555 1548.57 338.555C1579.74 338.555 1605 313.293 1605 282.129C1605 250.965 1579.74 225.703 1548.57 225.703ZM1548.57 677.109C1517.41 677.109 1492.15 702.371 1492.15 733.535C1492.15 764.699 1517.41 789.961 1548.57 789.961C1579.74 789.961 1605 764.699 1605 733.535C1605 702.371 1579.74 677.109 1548.57 677.109ZM1548.57 451.406C1517.41 451.406 1492.15 476.668 1492.15 507.832C1492.15 538.996 1517.41 564.258 1548.57 564.258C1579.74 564.258 1605 538.996 1605 507.832C1605 476.668 1579.74 451.406 1548.57 451.406ZM1441.99 789.961C1410.83 789.961 1385.57 815.223 1385.57 846.387C1385.57 877.55 1410.83 902.812 1441.99 902.812C1473.16 902.812 1498.42 877.55 1498.42 846.387C1498.42 815.223 1473.16 789.961 1441.99 789.961ZM1228.83 789.961C1197.66 789.961 1172.4 815.223 1172.4 846.387C1172.4 877.55 1197.66 902.812 1228.83 902.812C1259.99 902.812 1285.25 877.55 1285.25 846.387C1285.25 815.223 1259.99 789.961 1228.83 789.961ZM1335.41 677.109C1304.25 677.109 1278.98 702.371 1278.98 733.535C1278.98 764.699 1304.25 789.961 1335.41 789.961C1366.57 789.961 1391.84 764.699 1391.84 733.535C1391.84 702.371 1366.57 677.109 1335.41 677.109ZM376.172 789.961C345.008 789.961 319.746 815.223 319.746 846.387C319.746 877.55 345.008 902.812 376.172 902.812C407.336 902.812 432.598 877.55 432.598 846.387C432.598 815.223 407.336 789.961 376.172 789.961ZM589.336 225.703C620.5 225.703 645.762 200.441 645.762 169.277C645.762 138.114 620.5 112.852 589.336 112.852C558.172 112.852 532.91 138.114 532.91 169.277C532.91 200.441 558.172 225.703 589.336 225.703ZM482.754 112.852C513.918 112.852 539.18 87.5895 539.18 56.4258C539.18 25.262 513.918 0 482.754 0C451.59 0 426.328 25.262 426.328 56.4258C426.328 87.5895 451.59 112.852 482.754 112.852ZM695.918 112.852C727.082 112.852 752.344 87.5895 752.344 56.4258C752.344 25.262 727.082 0 695.918 0C664.754 0 639.492 25.262 639.492 56.4258C639.492 87.5895 664.754 112.852 695.918 112.852ZM802.5 225.703C833.664 225.703 858.926 200.441 858.926 169.277C858.926 138.114 833.664 112.852 802.5 112.852C771.336 112.852 746.074 138.114 746.074 169.277C746.074 200.441 771.336 225.703 802.5 225.703ZM163.008 789.961C131.844 789.961 106.582 815.223 106.582 846.387C106.582 877.55 131.844 902.812 163.008 902.812C194.172 902.812 219.434 877.55 219.434 846.387C219.434 815.223 194.172 789.961 163.008 789.961ZM909.082 112.852C940.246 112.852 965.508 87.5895 965.508 56.4258C965.508 25.262 940.246 0 909.082 0C877.918 0 852.656 25.262 852.656 56.4258C852.656 87.5895 877.918 112.852 909.082 112.852ZM376.172 225.703C407.336 225.703 432.598 200.441 432.598 169.277C432.598 138.114 407.336 112.852 376.172 112.852C345.008 112.852 319.746 138.114 319.746 169.277C319.746 200.441 345.008 225.703 376.172 225.703ZM1015.66 225.703C1046.83 225.703 1072.09 200.441 1072.09 169.277C1072.09 138.114 1046.83 112.852 1015.66 112.852C984.5 112.852 959.238 138.114 959.238 169.277C959.238 200.441 984.5 225.703 1015.66 225.703ZM56.4258 564.258C87.5895 564.258 112.852 538.996 112.852 507.832C112.852 476.668 87.5895 451.406 56.4258 451.406C25.262 451.406 0 476.668 0 507.832C0 538.996 25.262 564.258 56.4258 564.258ZM269.59 112.852C300.754 112.852 326.016 87.5895 326.016 56.4258C326.016 25.262 300.754 0 269.59 0C238.426 0 213.164 25.262 213.164 56.4258C213.164 87.5895 238.426 112.852 269.59 112.852ZM56.4258 338.555C87.5895 338.555 112.852 313.293 112.852 282.129C112.852 250.965 87.5895 225.703 56.4258 225.703C25.262 225.703 0 250.965 0 282.129C0 313.293 25.262 338.555 56.4258 338.555ZM56.4258 677.109C25.262 677.109 0 702.371 0 733.535C0 764.699 25.262 789.961 56.4258 789.961C87.5895 789.961 112.852 764.699 112.852 733.535C112.852 702.371 87.5895 677.109 56.4258 677.109ZM56.4258 112.852C87.5895 112.852 112.852 87.5895 112.852 56.4258C112.852 25.262 87.5895 0 56.4258 0C25.262 0 0 25.262 0 56.4258C0 87.5895 25.262 112.852 56.4258 112.852ZM163.008 225.703C194.172 225.703 219.434 200.441 219.434 169.277C219.434 138.114 194.172 112.852 163.008 112.852C131.844 112.852 106.582 138.114 106.582 169.277C106.582 200.441 131.844 225.703 163.008 225.703Z" fill="#F0F0EB" style="fill:#F0F0EB;fill:color(display-p3 0.9412 0.9412 0.9216);fill-opacity:1;"/>
</g>
<defs>
<clipPath id="clip0_7_145">
<rect width="1605" height="902.812" fill="white" style="fill:white;fill-opacity:1;"/>
</clipPath>
</defs>
</svg>
