<svg width="1920" height="1081" viewBox="0 0 1920 1081" fill="none" xmlns="http://www.w3.org/2000/svg">
<path d="M53.33 360.11H0V720.22H53.33V360.11Z" fill="#F0F0EB" style="fill:#F0F0EB;fill:color(display-p3 0.9412 0.9412 0.9216);fill-opacity:1;"/>
<path d="M106.66 0H53.3301L53.33 360.11H106.66V0Z" fill="#F0F0EB" style="fill:#F0F0EB;fill:color(display-p3 0.9412 0.9412 0.9216);fill-opacity:1;"/>
<path d="M160 360.11H106.67V720.22H160V360.11Z" fill="#F0F0EB" style="fill:#F0F0EB;fill:color(display-p3 0.9412 0.9412 0.9216);fill-opacity:1;"/>
<path d="M213.33 0H160V360.11H213.33V0Z" fill="#F0F0EB" style="fill:#F0F0EB;fill:color(display-p3 0.9412 0.9412 0.9216);fill-opacity:1;"/>
<path d="M266.66 360.11H213.33V720.22H266.66V360.11Z" fill="#F0F0EB" style="fill:#F0F0EB;fill:color(display-p3 0.9412 0.9412 0.9216);fill-opacity:1;"/>
<path d="M320 0H266.67V360.11H320V0Z" fill="#F0F0EB" style="fill:#F0F0EB;fill:color(display-p3 0.9412 0.9412 0.9216);fill-opacity:1;"/>
<path d="M373.33 360.11H320V720.22H373.33V360.11Z" fill="#F0F0EB" style="fill:#F0F0EB;fill:color(display-p3 0.9412 0.9412 0.9216);fill-opacity:1;"/>
<path d="M426.66 0H373.33V360.11H426.66V0Z" fill="#F0F0EB" style="fill:#F0F0EB;fill:color(display-p3 0.9412 0.9412 0.9216);fill-opacity:1;"/>
<path d="M480 360.11H426.67V720.22H480V360.11Z" fill="#F0F0EB" style="fill:#F0F0EB;fill:color(display-p3 0.9412 0.9412 0.9216);fill-opacity:1;"/>
<path d="M533.33 0H480V360.11H533.33V0Z" fill="#F0F0EB" style="fill:#F0F0EB;fill:color(display-p3 0.9412 0.9412 0.9216);fill-opacity:1;"/>
<path d="M586.66 360.11H533.33V720.22H586.66V360.11Z" fill="#F0F0EB" style="fill:#F0F0EB;fill:color(display-p3 0.9412 0.9412 0.9216);fill-opacity:1;"/>
<path d="M640 0H586.67V360.11H640V0Z" fill="#F0F0EB" style="fill:#F0F0EB;fill:color(display-p3 0.9412 0.9412 0.9216);fill-opacity:1;"/>
<path d="M693.33 360.11H640V720.22H693.33V360.11Z" fill="#F0F0EB" style="fill:#F0F0EB;fill:color(display-p3 0.9412 0.9412 0.9216);fill-opacity:1;"/>
<path d="M746.66 0H693.33V360.11H746.66V0Z" fill="#F0F0EB" style="fill:#F0F0EB;fill:color(display-p3 0.9412 0.9412 0.9216);fill-opacity:1;"/>
<path d="M800 360.11H746.67V720.22H800V360.11Z" fill="#F0F0EB" style="fill:#F0F0EB;fill:color(display-p3 0.9412 0.9412 0.9216);fill-opacity:1;"/>
<path d="M853.33 0H800V360.11H853.33V0Z" fill="#F0F0EB" style="fill:#F0F0EB;fill:color(display-p3 0.9412 0.9412 0.9216);fill-opacity:1;"/>
<path d="M906.66 360.11H853.33V720.22H906.66V360.11Z" fill="#F0F0EB" style="fill:#F0F0EB;fill:color(display-p3 0.9412 0.9412 0.9216);fill-opacity:1;"/>
<path d="M960 0H906.67V360.11H960V0Z" fill="#F0F0EB" style="fill:#F0F0EB;fill:color(display-p3 0.9412 0.9412 0.9216);fill-opacity:1;"/>
<path d="M1013.33 360.11H960V720.22H1013.33V360.11Z" fill="#F0F0EB" style="fill:#F0F0EB;fill:color(display-p3 0.9412 0.9412 0.9216);fill-opacity:1;"/>
<path d="M1066.66 0H1013.33V360.11H1066.66V0Z" fill="#F0F0EB" style="fill:#F0F0EB;fill:color(display-p3 0.9412 0.9412 0.9216);fill-opacity:1;"/>
<path d="M1120 360.11H1066.67V720.22H1120V360.11Z" fill="#F0F0EB" style="fill:#F0F0EB;fill:color(display-p3 0.9412 0.9412 0.9216);fill-opacity:1;"/>
<path d="M1173.33 0H1120V360.11H1173.33V0Z" fill="#F0F0EB" style="fill:#F0F0EB;fill:color(display-p3 0.9412 0.9412 0.9216);fill-opacity:1;"/>
<path d="M1226.66 360.11H1173.33V720.22H1226.66V360.11Z" fill="#F0F0EB" style="fill:#F0F0EB;fill:color(display-p3 0.9412 0.9412 0.9216);fill-opacity:1;"/>
<path d="M1280 0H1226.67V360.11H1280V0Z" fill="#F0F0EB" style="fill:#F0F0EB;fill:color(display-p3 0.9412 0.9412 0.9216);fill-opacity:1;"/>
<path d="M1333.33 360.11H1280V720.22H1333.33V360.11Z" fill="#F0F0EB" style="fill:#F0F0EB;fill:color(display-p3 0.9412 0.9412 0.9216);fill-opacity:1;"/>
<path d="M1386.66 0H1333.33V360.11H1386.66V0Z" fill="#F0F0EB" style="fill:#F0F0EB;fill:color(display-p3 0.9412 0.9412 0.9216);fill-opacity:1;"/>
<path d="M1440 360.11H1386.67V720.22H1440V360.11Z" fill="#F0F0EB" style="fill:#F0F0EB;fill:color(display-p3 0.9412 0.9412 0.9216);fill-opacity:1;"/>
<path d="M1493.33 0H1440V360.11H1493.33V0Z" fill="#F0F0EB" style="fill:#F0F0EB;fill:color(display-p3 0.9412 0.9412 0.9216);fill-opacity:1;"/>
<path d="M1546.66 360.11H1493.33V720.22H1546.66V360.11Z" fill="#F0F0EB" style="fill:#F0F0EB;fill:color(display-p3 0.9412 0.9412 0.9216);fill-opacity:1;"/>
<path d="M1600 0H1546.67V360.11H1600V0Z" fill="#F0F0EB" style="fill:#F0F0EB;fill:color(display-p3 0.9412 0.9412 0.9216);fill-opacity:1;"/>
<path d="M1653.33 360.11H1600V720.22H1653.33V360.11Z" fill="#F0F0EB" style="fill:#F0F0EB;fill:color(display-p3 0.9412 0.9412 0.9216);fill-opacity:1;"/>
<path d="M1706.66 0H1653.33V360.11H1706.66V0Z" fill="#F0F0EB" style="fill:#F0F0EB;fill:color(display-p3 0.9412 0.9412 0.9216);fill-opacity:1;"/>
<path d="M1760 360.11H1706.67V720.22H1760V360.11Z" fill="#F0F0EB" style="fill:#F0F0EB;fill:color(display-p3 0.9412 0.9412 0.9216);fill-opacity:1;"/>
<path d="M1813.33 0H1760V360.11H1813.33V0Z" fill="#F0F0EB" style="fill:#F0F0EB;fill:color(display-p3 0.9412 0.9412 0.9216);fill-opacity:1;"/>
<path d="M1866.66 360.11H1813.33V720.22H1866.66V360.11Z" fill="#F0F0EB" style="fill:#F0F0EB;fill:color(display-p3 0.9412 0.9412 0.9216);fill-opacity:1;"/>
<path d="M1920 0H1866.67V360.11H1920V0Z" fill="#F0F0EB" style="fill:#F0F0EB;fill:color(display-p3 0.9412 0.9412 0.9216);fill-opacity:1;"/>
<path d="M106.66 720.88H53.3301V1080.99H106.66V720.88Z" fill="#F0F0EB" style="fill:#F0F0EB;fill:color(display-p3 0.9412 0.9412 0.9216);fill-opacity:1;"/>
<path d="M213.33 720.88H160V1080.99H213.33V720.88Z" fill="#F0F0EB" style="fill:#F0F0EB;fill:color(display-p3 0.9412 0.9412 0.9216);fill-opacity:1;"/>
<path d="M320 720.88H266.67V1080.99H320V720.88Z" fill="#F0F0EB" style="fill:#F0F0EB;fill:color(display-p3 0.9412 0.9412 0.9216);fill-opacity:1;"/>
<path d="M426.66 720.88H373.33V1080.99H426.66V720.88Z" fill="#F0F0EB" style="fill:#F0F0EB;fill:color(display-p3 0.9412 0.9412 0.9216);fill-opacity:1;"/>
<path d="M533.33 720.88H480V1080.99H533.33V720.88Z" fill="#F0F0EB" style="fill:#F0F0EB;fill:color(display-p3 0.9412 0.9412 0.9216);fill-opacity:1;"/>
<path d="M640 720.88H586.67V1080.99H640V720.88Z" fill="#F0F0EB" style="fill:#F0F0EB;fill:color(display-p3 0.9412 0.9412 0.9216);fill-opacity:1;"/>
<path d="M746.66 720.88H693.33V1080.99H746.66V720.88Z" fill="#F0F0EB" style="fill:#F0F0EB;fill:color(display-p3 0.9412 0.9412 0.9216);fill-opacity:1;"/>
<path d="M853.33 720.88H800V1080.99H853.33V720.88Z" fill="#F0F0EB" style="fill:#F0F0EB;fill:color(display-p3 0.9412 0.9412 0.9216);fill-opacity:1;"/>
<path d="M960 720.88H906.67V1080.99H960V720.88Z" fill="#F0F0EB" style="fill:#F0F0EB;fill:color(display-p3 0.9412 0.9412 0.9216);fill-opacity:1;"/>
<path d="M1066.66 720.88H1013.33V1080.99H1066.66V720.88Z" fill="#F0F0EB" style="fill:#F0F0EB;fill:color(display-p3 0.9412 0.9412 0.9216);fill-opacity:1;"/>
<path d="M1173.33 720.88H1120V1080.99H1173.33V720.88Z" fill="#F0F0EB" style="fill:#F0F0EB;fill:color(display-p3 0.9412 0.9412 0.9216);fill-opacity:1;"/>
<path d="M1280 720.88H1226.67V1080.99H1280V720.88Z" fill="#F0F0EB" style="fill:#F0F0EB;fill:color(display-p3 0.9412 0.9412 0.9216);fill-opacity:1;"/>
<path d="M1386.66 720.88H1333.33V1080.99H1386.66V720.88Z" fill="#F0F0EB" style="fill:#F0F0EB;fill:color(display-p3 0.9412 0.9412 0.9216);fill-opacity:1;"/>
<path d="M1493.33 720.88H1440V1080.99H1493.33V720.88Z" fill="#F0F0EB" style="fill:#F0F0EB;fill:color(display-p3 0.9412 0.9412 0.9216);fill-opacity:1;"/>
<path d="M1600 720.88H1546.67V1080.99H1600V720.88Z" fill="#F0F0EB" style="fill:#F0F0EB;fill:color(display-p3 0.9412 0.9412 0.9216);fill-opacity:1;"/>
<path d="M1706.66 720.88H1653.33V1080.99H1706.66V720.88Z" fill="#F0F0EB" style="fill:#F0F0EB;fill:color(display-p3 0.9412 0.9412 0.9216);fill-opacity:1;"/>
<path d="M1813.33 720.88H1760V1080.99H1813.33V720.88Z" fill="#F0F0EB" style="fill:#F0F0EB;fill:color(display-p3 0.9412 0.9412 0.9216);fill-opacity:1;"/>
<path d="M1920 720.88H1866.67V1080.99H1920V720.88Z" fill="#F0F0EB" style="fill:#F0F0EB;fill:color(display-p3 0.9412 0.9412 0.9216);fill-opacity:1;"/>
</svg>
