<?xml version="1.0" encoding="UTF-8"?>
<svg id="Layer_1" data-name="Layer 1" xmlns="http://www.w3.org/2000/svg" xmlns:xlink="http://www.w3.org/1999/xlink" viewBox="0 0 2052 1380.99">
  <defs>
    <style>
      .cls-1 {
        fill: url(#linear-gradient);
      }
    </style>
    <linearGradient id="linear-gradient" x1="17.87" y1="690.44" x2="1381.06" y2="690.44" gradientUnits="userSpaceOnUse">
      <stop offset="0" stop-color="#3c92fd"/>
      <stop offset="1" stop-color="#02f9e0"/>
    </linearGradient>
  </defs>
  <path class="cls-1" d="M850.75,386.82v164.59c-44.07-50.76-96.57-91.88-155.04-120.38-58.44-28.49-122.92-44.24-189.95-44.22-67.03-.02-131.51,13.65-189.95,38.39-58.47,24.74-110.97,60.44-155.04,104.51-44.07,44.07-79.77,96.57-104.51,155.05-24.74,58.44-38.41,122.92-38.39,189.95-.02,67.02,13.65,131.51,38.39,189.94,24.74,58.47,60.44,110.97,104.51,155.04,44.07,44.07,96.57,79.77,155.04,104.51,58.44,24.74,122.92,38.41,189.95,38.39,67.03.02,131.51-15.73,189.95-44.22,58.47-28.49,110.97-69.61,155.04-120.37l9.72-11.2c29.5,101.54,123.16,175.79,234.22,175.79h0V386.82h-243.94ZM678.25,1047.2c-22.15,22.15-48.49,40.03-77.58,52.33-29.12,12.29-60.9,19.1-94.92,19.12-34.02-.02-65.8-6.83-94.92-19.12-29.08-12.3-55.43-30.18-77.58-52.33-22.15-22.15-40.03-48.49-52.33-77.58-12.29-29.12-19.1-60.9-19.12-94.91.02-34.02,6.83-65.8,19.12-94.92,12.3-29.08,30.18-55.43,52.33-77.58,22.14-22.15,48.49-40.03,77.58-52.33,29.12-12.29,60.9-19.1,94.92-19.12,34.02.02,65.8,6.83,94.92,19.12,29.08,12.3,55.43,30.18,77.58,52.33l172.49,172.49h0l-172.49,172.5ZM1381.06,1359.97h0c-134.73,0-243.94-109.22-243.95-243.94V384.19s243.94,0,243.94,0v975.77ZM1381.06,262.23s0-215.07,0-243.95h-243.94c0,28.87,0,243.92,0,243.95h243.95,0Z"/>
  <path d="M2042.81,392.08h-121.97c-67.03-.02-131.51,17.06-189.94,47.99-32.85,17.37-63.83,39.08-92.48,64.54-43.36-67.65-119.15-112.52-205.47-112.52h0v975.78h243.95v-487.89c.02-34.02,6.82-65.8,19.12-94.91,12.3-29.08,30.18-55.43,52.33-77.58,22.14-22.14,48.49-40.03,77.58-52.32,29.12-12.3,60.9-19.1,94.91-19.12h121.97v-243.94h0Z"/>
</svg>